<svg width="24" height="24" viewBox="0 0 24 24" fill="none" xmlns="http://www.w3.org/2000/svg">
<path fill-rule="evenodd" clip-rule="evenodd" d="M1.5 4.5C1.5 4.08579 1.83579 3.75 2.25 3.75H21.75C22.1642 3.75 22.5 4.08579 22.5 4.5C22.5 4.91421 22.1642 5.25 21.75 5.25H2.25C1.83579 5.25 1.5 4.91421 1.5 4.5ZM21.75 11.25H2.25C1.83579 11.25 1.5 11.5858 1.5 12C1.5 12.4142 1.83579 12.75 2.25 12.75H21.75C22.1642 12.75 22.5 12.4142 22.5 12C22.5 11.5858 22.1642 11.25 21.75 11.25ZM2.25 18.75H21.75C22.1642 18.75 22.5 19.0858 22.5 19.5C22.5 19.9142 22.1642 20.25 21.75 20.25H2.25C1.83579 20.25 1.5 19.9142 1.5 19.5C1.5 19.0858 1.83579 18.75 2.25 18.75Z" fill="#1D1D1D"/>
</svg>
