<svg width="24" height="24" viewBox="0 0 24 24" fill="none" xmlns="http://www.w3.org/2000/svg">
<path fill-rule="evenodd" clip-rule="evenodd" d="M18.5325 17.4677C18.6744 17.6085 18.7543 17.8002 18.7543 18.0002C18.7543 18.2001 18.6744 18.3918 18.5325 18.5327C18.3916 18.6746 18.1999 18.7545 18 18.7545C17.8 18.7545 17.6083 18.6746 17.4675 18.5327L12 13.0577L6.53245 18.5327C6.39163 18.6746 6.19993 18.7545 5.99995 18.7545C5.79998 18.7545 5.60828 18.6746 5.46745 18.5327C5.32547 18.3918 5.24561 18.2001 5.24561 18.0002C5.24561 17.8002 5.32547 17.6085 5.46745 17.4677L10.9425 12.0002L5.46745 6.53266C5.27721 6.34241 5.20291 6.06513 5.27255 5.80525C5.34218 5.54537 5.54517 5.34238 5.80505 5.27275C6.06492 5.20311 6.34221 5.27741 6.53245 5.46766L12 10.9427L17.4675 5.46766C17.7615 5.17356 18.2384 5.17356 18.5325 5.46766C18.8265 5.76175 18.8265 6.23856 18.5325 6.53266L13.0575 12.0002L18.5325 17.4677Z" fill="white"/>
</svg>
