<svg width="51" height="52" viewBox="0 0 51 52" fill="none" xmlns="http://www.w3.org/2000/svg">
<path d="M24.5589 7.94681C25.008 7.49769 25.7362 7.49769 26.1853 7.94681L43.4253 25.1868C43.8744 25.6359 43.8744 26.3641 43.4253 26.8132L26.1853 44.0532C25.7362 44.5023 25.008 44.5023 24.5589 44.0532L7.31886 26.8132C6.86974 26.3641 6.86974 25.6359 7.31886 25.1868L24.5589 7.94681Z" fill="#00316B"/>
<path fill-rule="evenodd" clip-rule="evenodd" d="M21.306 4.69397C23.5516 2.44836 27.1925 2.44836 29.4381 4.69397L46.6781 21.934C48.9237 24.1796 48.9237 27.8204 46.6781 30.066L29.4381 47.306C27.1925 49.5516 23.5516 49.5516 21.306 47.306L4.06604 30.066C1.82043 27.8204 1.82043 24.1796 4.06604 21.934L21.306 4.69397ZM27.8117 6.32038C26.4643 4.97302 24.2798 4.97302 22.9324 6.32038L5.69245 23.5604C4.34508 24.9077 4.34509 27.0923 5.69245 28.4396L22.9324 45.6796C24.2798 47.027 26.4643 47.027 27.8117 45.6796L45.0517 28.4396C46.3991 27.0923 46.3991 24.9077 45.0517 23.5604L27.8117 6.32038Z" fill="#00316B"/>
<path d="M34.3985 23.4791V20.2263L34.3171 20.145H22.119L22.119 17.7053L16.3452 21.8527L22.0377 25.9187V23.4791H34.3985Z" fill="white"/>
<path fill-rule="evenodd" clip-rule="evenodd" d="M34.365 20.0299L34.5137 20.1786V23.5941H22.1529L22.1529 26.1421L16.148 21.8529L22.2342 17.4811L22.2342 20.0299H34.365ZM34.2697 20.2599H22.0042L22.0042 17.9295L16.5429 21.8524L21.9229 25.6952V23.364H34.2837V20.2739L34.2697 20.2599Z" fill="white"/>
<path d="M16.1828 29.3342L16.1828 32.587L16.2642 32.6683L28.4623 32.6683L28.4623 35.108L34.2361 30.9606L28.5436 26.8946L28.5436 29.3342L16.1828 29.3342Z" fill="white"/>
<path fill-rule="evenodd" clip-rule="evenodd" d="M16.2171 32.7833L16.0684 32.6347L16.0684 29.2192L28.4291 29.2192L28.4291 26.6711L34.4341 30.9603L28.3478 35.3322L28.3478 32.7833L16.2171 32.7833ZM16.3123 32.5533L28.5778 32.5533L28.5778 34.8837L34.0391 30.9609L28.6591 27.118L28.6591 29.4492L16.2984 29.4492L16.2984 32.5394L16.3123 32.5533Z" fill="white"/>
</svg>
