<?xml version="1.0" encoding="utf-8"?>
<!-- Generator: Adobe Illustrator 24.0.1, SVG Export Plug-In . SVG Version: 6.00 Build 0)  -->
<svg version="1.1" id="Capa_1" xmlns="http://www.w3.org/2000/svg" xmlns:xlink="http://www.w3.org/1999/xlink" x="0px" y="0px"
	 viewBox="0 0 300 131" style="enable-background:new 0 0 300 131;" xml:space="preserve">
<style type="text/css">
	.st0{fill:#1A171B;}
</style>
<g>
	<g>
		<g>
			<g>
				<g>
					<path class="st0" d="M235.4,63.8c0-40.2-23.6-46.8-53.7-47h-25.6v1.7c9.9,0.8,8.5,5,8.6,12.9V86h0.1v28.4h16.8
						c24.7-0.2,44.6-4.7,51.1-28.4l0,0C234.6,79.8,235.4,72.6,235.4,63.8z M217.7,73c-0.2,2.4-0.6,5.1-1.2,7.8
						c-0.7,3.1-2.6,8.7-3.9,11.4c-2,3.9-4.2,8-9.1,10.9c-5.1,3-9,4.3-15.8,4.3c-2.1,0-4-0.4-5.2-0.8V85.9l0,0V24.2
						c1.2-0.4,3-0.6,5-0.6c26.1,0,30.2,19.3,30.6,40.1C218.1,65.4,218.1,68.9,217.7,73z"/>
					<path class="st0" d="M277,105.9c-10.4,0-11.6-4.2-11.6-12.1l-0.2-29.8h26.4v-0.3l0,0v-5.4l0,0v-2.1h-26.4h-0.1V32.9
						c0-7.3,0.7-9,8.9-9h9.3c11.8,0,16.7,0,16.7,0v-7.2h-60.9v1.7c9.9,0.8,8.5,5,8.6,12.9v83h52.2v-8.4c0,0-3.6,0-13.3,0
						C286.6,105.9,277,105.9,277,105.9z"/>
					<path class="st0" d="M119.8,16.7h-20v1.7c6.9,0.6,8.2,3.6,7.4,7.6c-0.1,1.1-1.2,4.2-2.3,7.2c-1.4,3.9-30.2,81-30.2,81h11
						L101.5,71H125l15.5,43.3h16.2L119.8,16.7z M103.1,64l9.6-26.6l10,26.6H103.1z"/>
					<path class="st0" d="M72.1,85.3L72.1,85.3V16.7H60.4v68.7c0,0,0,2.2-0.1,4.7c-0.3,3.8-0.7,8.7-3.8,12.2c-2.3,2.8-6,4-8.7,4.5
						c-2.6,0.5-7.6,0.3-9.4-0.1c-2.8-0.5-6.1-1.7-8.6-4.7c-3.1-3.7-3.8-8.9-4-12.6c-0.1-2.4,0-4.2,0-4.2l0,0V16.7
						c-0.1,0-0.2,0-0.3,0H0v1.7c9.9,0.8,8.5,5,8.6,12.9v54c0,0,0,2.1,0.4,5c1,8,4.8,23.8,34,23.9c9.6-0.2,17.4-2.1,21.8-6.6
						C72.3,101,72.1,85.3,72.1,85.3z"/>
				</g>
			</g>
		</g>
	</g>
</g>
</svg>
